<svg width="1093" height="324" xmlns="http://www.w3.org/2000/svg" xmlns:xlink="http://www.w3.org/1999/xlink" overflow="hidden"><defs><clipPath id="clip0"><path d="M87 150 1180 150 1180 474 87 474Z" fill-rule="evenodd" clip-rule="evenodd"/></clipPath></defs><g clip-path="url(#clip0)" transform="translate(-87 -150)"><path d="M88 150 113.848 440.108 229.997 473 346.152 440.108 372 150 88 150Z" fill="#00A372" fill-rule="evenodd"/><path d="M230 448 325.019 421.29 347 173 230 173 230 448Z" fill="#6FC393" fill-rule="evenodd"/><path d="M230 413.001 231 412.547 230 412 230 413.001Z" fill="#FFDD15" fill-rule="evenodd"/><path d="M230 375 231 374.454 230 374 230 375Z" fill="#FFDD15" fill-rule="evenodd"/><path d="M323 210 316.345 284 279.515 284 282.911 246.206 230 246.206 230 210 323 210Z" fill="#FFFFFF" fill-rule="evenodd"/><path d="M272.467 335 309 335 304.08 390.79 230 412 230 373.998 230 373.933 270.05 362.462 272.467 335Z" fill="#FFFFFF" fill-rule="evenodd"/><path d="M229.949 210 229.949 246.507 179.573 246.507 189.906 362.586 229.878 374.046 230 374.079 230 411.968 229.878 412 156.045 390.825 140 210 229.949 210Z" fill="#E4E7E7" fill-rule="evenodd"/><path d="M428 216 452.406 216C463.716 216 472.475 219.047 478.682 225.143 484.89 231.238 487.995 239.822 488 250.897 488 262.044 484.894 270.68 478.682 276.806 472.471 282.931 463.712 285.996 452.406 286L428 286ZM451.819 277.543C469.015 277.543 477.612 268.66 477.612 250.897 477.612 233.27 469.015 224.455 451.819 224.451L438.13 224.451 438.13 277.543Z" fill="#AFABAB" fill-rule="evenodd"/><path d="M502 286 502 216 512 216 512 286Z" fill="#AFABAB" fill-rule="evenodd"/><path d="M536.581 284.782C532.317 283.45 528.373 281.237 525 278.283L528.622 270.776C531.763 273.381 535.335 275.403 539.174 276.749 543.153 278.054 547.318 278.688 551.501 278.627 556.712 278.627 560.755 277.639 563.629 275.664 566.428 273.824 568.063 270.632 567.933 267.26 568.021 264.383 566.461 261.711 563.925 260.397 561.248 258.85 557.008 257.416 551.205 256.095 546.55 255.204 541.994 253.85 537.604 252.052 534.359 250.715 531.501 248.574 529.291 245.826 527.271 243.227 526.261 239.884 526.261 235.798 526.192 231.941 527.317 228.158 529.478 224.977 531.786 221.702 534.958 219.149 538.633 217.607 542.955 215.796 547.601 214.91 552.279 215.007 556.955 214.973 561.602 215.742 566.022 217.282 570.007 218.622 573.66 220.812 576.734 223.703L573.118 231.255C570.183 228.711 566.842 226.689 563.236 225.276 559.763 223.968 556.083 223.307 552.376 223.326 547.357 223.326 543.414 224.41 540.544 226.576 537.743 228.571 536.125 231.857 536.24 235.317 536.11 238.233 537.549 240.991 540.004 242.531 542.513 244.173 546.54 245.655 552.086 246.977 556.88 247.993 561.588 249.382 566.17 251.13 569.47 252.376 572.424 254.41 574.778 257.057 576.923 259.557 577.995 262.784 577.995 266.74 578.083 270.554 576.956 274.295 574.778 277.412 572.424 280.606 569.216 283.057 565.533 284.477 561.523 286.158 556.804 286.998 551.379 286.998 546.362 287.041 541.37 286.293 536.581 284.782Z" fill="#AFABAB" fill-rule="evenodd"/><path d="M605.851 286 605.851 224.451 582 224.451 582 216 640 216 640 224.451 616.149 224.451 616.149 286Z" fill="#AFABAB" fill-rule="evenodd"/><path d="M706 285.987 695.121 285.987 686.232 262.714C685.3 260.227 683.936 258.504 682.142 257.542 680.347 256.581 677.885 256.105 674.756 256.114L659.183 256.114 659.183 286 649 286 649 216 678.248 216C686.035 216 692.007 217.702 696.165 221.107 700.323 224.512 702.404 229.395 702.409 235.756 702.409 240.346 701.177 244.244 698.713 247.451 696.249 250.657 692.747 252.918 688.208 254.232 692.34 254.956 695.336 257.84 697.196 262.882ZM677.054 247.942C682.24 247.942 686.099 246.945 688.628 244.949 691.158 242.953 692.423 239.954 692.423 235.95 692.423 231.955 691.176 228.99 688.681 227.055 686.186 225.12 682.31 224.154 677.054 224.158L659.183 224.158 659.183 247.942Z" fill="#AFABAB" fill-rule="evenodd"/><path d="M718 286 718 216 728 216 728 286Z" fill="#AFABAB" fill-rule="evenodd"/><path d="M794.656 256.011C796.888 258.96 798 262.598 798 266.926 798 272.96 795.917 277.646 791.758 280.983 787.599 284.319 781.777 285.992 774.293 286L744 286 744 216 773.309 216C780.522 216 786.143 217.605 790.173 220.817 794.203 224.029 796.215 228.518 796.221 234.286 796.461 241.366 791.971 247.747 785.224 249.914 789.287 251.03 792.431 253.063 794.656 256.011ZM754.039 246.377 771.737 246.377C781.512 246.377 786.402 242.609 786.395 235.074 786.395 227.794 781.512 224.155 771.737 224.16L754.039 224.16ZM784.526 275.034C786.887 273.163 788.071 270.264 788.064 266.337 788.064 262.333 786.868 259.367 784.474 257.44 782.081 255.513 778.361 254.545 773.316 254.537L754.039 254.537 754.039 277.814 773.316 277.814C778.426 277.832 782.165 276.904 784.526 275.034Z" fill="#AFABAB" fill-rule="evenodd"/><path d="M818.251 279.703C813.419 274.839 811.007 267.705 811 258.3L811 216 820.961 216 820.961 258.994C820.961 265.506 822.525 270.42 825.644 273.737 828.763 277.053 833.381 278.713 839.497 278.718 845.548 278.718 850.133 277.042 853.252 273.691 856.372 270.34 857.935 265.441 857.941 258.994L857.941 216 868 216 868 258.307C868 267.703 865.581 274.837 860.749 279.71 855.918 284.583 848.829 287.013 839.497 287 830.164 287 823.082 284.568 818.251 279.703Z" fill="#AFABAB" fill-rule="evenodd"/><path d="M900.851 286 900.851 224.451 877 224.451 877 216 935 216 935 224.451 911.156 224.451 911.156 286Z" fill="#AFABAB" fill-rule="evenodd"/><path d="M944 286 944 216 990 216 990 224.257 954.156 224.257 954.156 246.28 988.01 246.28 988.01 254.537 954.156 254.537 954.156 277.737 990 277.737 990 286Z" fill="#AFABAB" fill-rule="evenodd"/><path d="M1002 216 1026.81 216C1038.3 216 1047.21 219.047 1053.52 225.143 1059.83 231.238 1062.99 239.822 1063 250.897 1063 262.044 1059.85 270.68 1053.54 276.806 1047.22 282.931 1038.32 285.996 1026.83 286L1002.01 286ZM1026.25 277.543C1043.73 277.543 1052.47 268.66 1052.47 250.897 1052.47 233.27 1043.73 224.455 1026.25 224.451L1012.3 224.451 1012.3 277.543Z" fill="#AFABAB" fill-rule="evenodd"/><path d="M440.61 400.571C435.599 397.651 431.571 393.295 429.042 388.062 426.347 382.661 425 376.271 425 368.89 425 361.508 426.347 355.147 429.042 349.808 431.565 344.584 435.596 340.244 440.61 337.351 445.637 334.451 451.531 333.002 458.293 333.002 462.836 332.96 467.351 333.713 471.636 335.225 475.528 336.596 479.068 338.816 482 341.727L478.451 349.216C475.548 346.743 472.267 344.756 468.735 343.332 465.42 342.094 461.908 341.475 458.371 341.505 451.086 341.505 445.455 343.879 441.478 348.625 437.501 353.371 435.515 360.126 435.519 368.89 435.519 377.718 437.506 384.521 441.478 389.297 445.451 394.074 451.082 396.457 458.371 396.449 461.908 396.481 465.422 395.859 468.735 394.616 472.267 393.205 475.548 391.229 478.451 388.764L482 396.273C479.07 399.187 475.529 401.408 471.636 402.775 467.351 404.287 462.836 405.04 458.293 404.998 451.523 404.977 445.628 403.501 440.61 400.571Z" fill="#AFABAB" fill-rule="evenodd"/><path d="M507.246 400.603C502.351 397.637 498.431 393.284 495.978 388.088 493.326 382.685 492 376.323 492 369.003 492 361.684 493.309 355.287 495.926 349.815 498.362 344.611 502.298 340.268 507.22 337.352 512.128 334.451 517.888 333 524.5 333 531.177 333 536.952 334.451 541.825 337.352 546.728 340.276 550.645 344.619 553.067 349.815 555.689 355.218 557 361.581 557 368.906 557 376.23 555.689 382.624 553.067 388.088 550.625 393.304 546.686 397.663 541.761 400.603 536.853 403.538 531.093 405.005 524.481 405 517.868 404.995 512.123 403.53 507.246 400.603ZM540.824 389.473C544.699 384.66 546.636 377.804 546.636 368.906 546.636 360.007 544.699 353.199 540.824 348.481 536.924 343.711 531.474 341.326 524.474 341.326 517.474 341.326 512.042 343.711 508.176 348.481 504.301 353.251 502.364 360.059 502.364 368.906 502.364 377.752 504.301 384.608 508.176 389.473 512.05 394.287 517.468 396.694 524.429 396.694 531.39 396.694 536.857 394.287 540.831 389.473Z" fill="#AFABAB" fill-rule="evenodd"/><path d="M629.834 334 638 334 638 404 628.85 404 628.85 355.916 608.091 404 601.103 404 580.053 356.239 580.15 404 571 404 571 334 579.166 334 604.649 391.779Z" fill="#AFABAB" fill-rule="evenodd"/><path d="M654 334 683.43 334C690.842 334 696.626 335.786 700.781 339.358 704.935 342.93 707.009 347.792 707 353.945 707 360.102 704.894 364.966 700.682 368.538 696.471 372.11 690.72 373.896 683.43 373.896L664.248 373.896 664.248 404 654 404ZM682.246 365.869C687.151 365.869 690.846 364.854 693.331 362.825 695.817 360.795 697.059 357.846 697.059 353.977 697.059 350.181 695.817 347.267 693.331 345.233 690.846 343.199 687.151 342.184 682.246 342.188L664.248 342.188 664.248 365.869Z" fill="#AFABAB" fill-rule="evenodd"/><path d="M726.247 397.698C721.416 392.834 719 385.7 719 376.297L719 334 728.957 334 728.957 377.003C728.957 383.515 730.517 388.428 733.637 391.744 736.755 395.06 741.377 396.72 747.49 396.725 753.538 396.725 758.122 395.05 761.233 391.699 764.345 388.348 765.913 383.45 765.946 377.003L765.946 334 776 334 776 376.303C776 385.702 773.582 392.836 768.753 397.704 763.923 402.573 756.844 405.005 747.516 405 738.162 404.995 731.075 402.562 726.247 397.698Z" fill="#AFABAB" fill-rule="evenodd"/><path d="M807.851 404 807.851 342.447 784 342.447 784 334 842 334 842 342.447 818.149 342.447 818.149 404Z" fill="#AFABAB" fill-rule="evenodd"/><path d="M851 404 851 334 897 334 897 342.253 861.156 342.253 861.156 364.266 895.01 364.266 895.01 372.519 861.156 372.519 861.156 395.708 897 395.708 897 404Z" fill="#AFABAB" fill-rule="evenodd"/><path d="M936 404 936 334 946.093 334 946.093 395.514 980 395.514 980 404Z" fill="#AFABAB" fill-rule="evenodd"/><path d="M1042.68 404 1035.21 386.697 999.832 386.697 992.345 404 982 404 1013.16 334 1021.71 334 1053 404ZM1003.24 378.634 1031.75 378.634 1017.49 345.302Z" fill="#AFABAB" fill-rule="evenodd"/><path d="M1112.66 374.011C1114.88 376.96 1115.99 380.598 1116 384.926 1116 390.96 1113.92 395.646 1109.75 398.983 1105.59 402.319 1099.77 403.992 1092.29 404L1062 404 1062 334 1091.31 334C1098.52 334 1104.14 335.605 1108.17 338.817 1112.2 342.029 1114.23 346.524 1114.25 352.305 1114.49 359.385 1110 365.765 1103.26 367.933 1107.29 369.041 1110.42 371.067 1112.66 374.011ZM1072.04 364.377 1089.74 364.377C1099.51 364.377 1104.39 360.609 1104.39 353.074 1104.39 345.794 1099.51 342.155 1089.74 342.16L1072.04 342.16ZM1102.53 393.04C1104.89 391.174 1106.07 388.275 1106.07 384.344 1106.07 380.339 1104.87 377.373 1102.48 375.447 1100.08 373.52 1096.36 372.552 1091.31 372.543L1072.04 372.543 1072.04 395.821 1091.31 395.821C1096.43 395.834 1100.17 394.907 1102.53 393.04Z" fill="#AFABAB" fill-rule="evenodd"/><path d="M1137.58 402.824C1133.31 401.49 1129.37 399.275 1126 396.318L1129.62 388.804C1132.76 391.433 1136.33 393.475 1140.18 394.835 1144.15 396.141 1148.31 396.776 1152.49 396.715 1157.71 396.715 1161.75 395.726 1164.62 393.749 1167.42 391.909 1169.05 388.716 1168.92 385.344 1169.01 382.459 1167.45 379.781 1164.91 378.467 1162.24 376.919 1158.01 375.483 1152.2 374.161 1147.55 373.25 1143 371.875 1138.61 370.056 1135.37 368.717 1132.51 366.577 1130.3 363.83 1128.28 361.228 1127.27 357.88 1127.27 353.786 1127.2 349.925 1128.33 346.138 1130.49 342.954 1132.8 339.686 1135.98 337.141 1139.65 335.609 1143.97 333.796 1148.62 332.91 1153.29 333.007 1157.97 332.973 1162.61 333.742 1167.03 335.284 1171.01 336.628 1174.66 338.82 1177.73 341.712L1174.12 349.232C1171.19 346.686 1167.84 344.662 1164.24 343.247 1160.77 341.937 1157.09 341.276 1153.39 341.295 1148.37 341.295 1144.43 342.369 1141.56 344.515 1138.76 346.514 1137.14 349.802 1137.25 353.265 1137.13 356.185 1138.57 358.946 1141.02 360.486 1143.53 362.139 1147.56 363.622 1153.1 364.936 1157.89 365.953 1162.6 367.344 1167.18 369.093 1170.47 370.343 1173.43 372.378 1175.78 375.026 1177.92 377.537 1179 380.768 1179 384.719 1179.09 388.536 1177.95 392.281 1175.78 395.401 1173.43 398.598 1170.22 401.053 1166.54 402.479 1162.53 404.157 1157.81 404.997 1152.39 404.997 1147.37 405.057 1142.37 404.324 1137.58 402.824Z" fill="#AFABAB" fill-rule="evenodd"/></g></svg>